<!DOCTYPE svg PUBLIC "-//W3C//DTD SVG 1.1//EN" "http://www.w3.org/Graphics/SVG/1.1/DTD/svg11.dtd">
<!-- Uploaded to: SVG Repo, www.svgrepo.com, Transformed by: SVG Repo Mixer Tools -->
<svg fill="#000000" version="1.1" id="Capa_1" xmlns="http://www.w3.org/2000/svg" xmlns:xlink="http://www.w3.org/1999/xlink" width="64px" height="64px" viewBox="-9.8 -9.8 51.20 51.20" xml:space="preserve">
<g id="SVGRepo_bgCarrier" stroke-width="0">
<rect x="-9.8" y="-9.8" width="51.20" height="51.20" rx="25.6" fill="#7ed0ec" strokewidth="0"/>
</g>
<g id="SVGRepo_tracerCarrier" stroke-linecap="round" stroke-linejoin="round"/>
<g id="SVGRepo_iconCarrier"> <g> <path d="M29.554,13.78c-0.506-0.008-0.878,0.047-1.17,0.287c-0.101,0.084-0.147,0.211-0.289,0.256 c0.233-0.545,0.614-1.027,0.899-1.512c0.091-0.221,0.181-0.439,0.271-0.66c-0.016-0.013-0.032-0.022-0.05-0.035 c-0.096,0.006-0.191,0.013-0.289,0.019c-0.542-0.129-0.947-0.144-1.29,0.271c-0.096,0.119-0.19,0.237-0.288,0.356 c-1.123-0.67-2.068,0.81-2.426,1.577c-0.213-0.047-0.514-0.173-0.764-0.135c-0.939,0.14-1.411,1.203-1.833,1.883 c-0.275,0.444-0.448,0.89-0.679,1.409c-0.211,0.391-0.42,0.781-0.629,1.171c-0.051,0.175-0.102,0.352-0.151,0.526 c-0.289,0.508-0.795,0.943-1.171,1.391c-0.068,0.033-0.138,0.068-0.204,0.103c-0.175,0.137-0.353,0.271-0.526,0.406 c-0.305,0.131-0.611,0.261-0.917,0.393c-1.071,0.547-2.57,1.383-3.105,2.442c-0.167,0.331-0.211,0.868-0.305,1.238 c-0.005,0-0.011,0-0.017,0c-0.029-0.361-0.057-0.725-0.085-1.086c-0.074-0.264-0.259-0.498-0.391-0.713 c-0.254-0.422-0.561-0.775-0.891-1.104c6.479-2.841,9.521-13.044,18.35-10.852c-1.616-3.465-3.236-6.93-4.854-10.396 C17.045-1.394,14.333,11.172,6.366,12.477c1.239,2.654,2.479,5.309,3.719,7.963c-0.009-0.006-0.019-0.009-0.028-0.012 c-0.316-0.23-0.634-0.464-0.95-0.693c-0.384-0.363-0.789-0.705-1.154-1.086c-0.079-0.068-0.158-0.138-0.237-0.205 c-0.371-0.576-0.809-1.201-1.392-1.562c-0.012-0.541-0.248-0.896-0.356-1.291c0.022-0.255,0.045-0.51,0.068-0.765 c0.122-0.764-0.242-1.523-0.765-1.68c0.08-0.629-0.023-1.125-0.474-1.354c-0.108-0.023-0.215-0.047-0.323-0.068 c-0.099-0.046-0.09-0.191-0.221-0.236c-0.211,0.776-0.394,1.812-0.526,2.681c-0.011,0-0.023,0-0.034,0 c-0.142-1.495,0.522-2.681-1.153-3.106c-0.023-0.094-0.074-0.146-0.137-0.203c-0.011,0.006-0.021,0.012-0.033,0.018 c-0.254,1.074-0.07,2.385-0.288,3.496c-0.006,0-0.012,0-0.018,0c-0.005,0-0.012,0-0.017,0c-0.131-0.447-0.846-1.018-1.324-1.137 c-0.203-0.052-0.365,0.021-0.542,0.033c-0.042-0.054-0.081-0.095-0.153-0.119c0,0.012,0,0.022,0,0.034 c-0.119,0.316,0.175,0.828,0.289,1.019c0.451,0.759,0.771,1.58,1.137,2.427c0.176,0.502,0.351,1.006,0.526,1.509 c0.146,0.25,0.422,0.389,0.611,0.596c0.311,0.366,0.622,0.734,0.933,1.104c0.26,0.277,0.521,0.555,0.78,0.832 c0.412,0.533,0.54,1.12,1.052,1.576c0.254,0.16,0.509,0.316,0.763,0.477c1.229,0.986,3.081,1.875,3.835,3.292 c0.107,0.243,0.215,0.486,0.323,0.729c-0.012,0.367-0.023,0.733-0.034,1.103c0.065,0.524-0.097,1.119-0.221,1.578 c-0.103,0.487-0.207,0.979-0.309,1.469h4.508c-0.002-0.229-0.005-0.458-0.008-0.688c-0.023-0.68,0.123-1.358,0.187-1.95 c0.005,0.011,0.012,0.022,0.017,0.032c0.13,0.332,0.034,0.971,0.034,1.408c-0.009,0.398-0.017,0.799-0.026,1.196h4.469 c-0.032-0.258-0.064-0.515-0.1-0.771c-0.29-1.396-0.486-2.562,0.153-3.717c0.384-0.694,1.096-1.193,1.729-1.646 c0.862-0.612,1.657-1.356,2.528-1.969c0.368-0.211,0.734-0.418,1.103-0.629c0.428-0.359,0.679-1.03,1.02-1.477 c0.194-0.254,0.47-0.439,0.68-0.679c0.282-0.328,0.564-0.656,0.849-0.983c0.228-0.221,0.452-0.441,0.68-0.662 c0.305-0.68,0.609-1.355,0.916-2.035c0.313-0.536,0.63-1.022,0.968-1.543c0.189-0.295,0.486-0.535,0.526-0.984 C29.794,13.674,29.765,13.782,29.554,13.78z M16.673,6.991c1.596-1.711,3.791-1.168,4.713,0.807 c0.913,1.958,0.21,4.605-1.389,6.314c-1.6,1.705-3.639,1.491-4.566-0.49C14.521,11.672,15.074,8.696,16.673,6.991z M23.31,17.038 c0-0.006,0-0.012,0-0.02c0.191-0.562,0.719-1.772,1.172-1.985C24.405,15.333,23.521,16.947,23.31,17.038z M24.821,14.356 c0.017,0,0.034,0,0.051,0C24.849,14.401,24.832,14.405,24.821,14.356z M26.161,14.985c-0.18,0.377-0.271,0.933-0.562,1.205 c-0.005,0-0.011,0-0.017,0c0-0.007,0-0.013,0-0.019c0.222-0.565,0.491-1.713,0.984-1.968 C26.432,14.464,26.296,14.724,26.161,14.985z M17.84,8.771c0.19,0.408,0.38,0.814,0.571,1.225c0.051-0.051,0.103-0.1,0.152-0.147 c0.522-0.483,0.925-0.702,1.191-0.69c0.268,0.011,0.513,0.257,0.737,0.734c0.242,0.518,0.31,0.969,0.207,1.361 c-0.103,0.395-0.399,0.822-0.881,1.316c-0.047,0.047-0.095,0.096-0.14,0.145c0.085,0.182,0.169,0.363,0.255,0.548 c-0.151,0.155-0.305,0.315-0.457,0.474c-0.085-0.181-0.17-0.363-0.255-0.545c-0.044,0.041-0.087,0.086-0.13,0.129 c-0.474,0.504-0.85,0.764-1.136,0.77c-0.285,0.007-0.542-0.237-0.772-0.729c-0.024-0.059-0.051-0.112-0.074-0.17 c0.223-0.24,0.443-0.479,0.668-0.721c0.013,0.029,0.024,0.059,0.04,0.089c0.141,0.298,0.271,0.449,0.389,0.452 c0.119,0.006,0.312-0.138,0.585-0.426c0.034-0.034,0.067-0.066,0.101-0.102c-0.206-0.441-0.41-0.883-0.615-1.324 c-0.531,0.562-0.936,0.854-1.216,0.873c-0.279,0.02-0.542-0.229-0.783-0.746c-0.232-0.498-0.295-0.947-0.188-1.34 c0.108-0.39,0.423-0.871,0.952-1.43c-0.074-0.158-0.148-0.316-0.222-0.475c0.15-0.16,0.303-0.318,0.456-0.477 c0.072,0.159,0.146,0.316,0.222,0.477c0.509-0.523,0.907-0.773,1.184-0.777c0.275-0.006,0.525,0.237,0.75,0.719 c0.019,0.034,0.034,0.072,0.054,0.108C19.255,8.3,19.03,8.512,18.806,8.731c-0.014-0.029-0.027-0.058-0.043-0.086 c-0.169-0.361-0.442-0.359-0.816,0.021C17.911,8.7,17.875,8.737,17.84,8.771z M17.38,9.243c-0.031,0.037-0.062,0.069-0.094,0.105 c-0.399,0.424-0.506,0.832-0.325,1.217c0.188,0.404,0.48,0.396,0.877-0.024c0.002-0.005,0.037-0.036,0.104-0.099 C17.754,10.043,17.569,9.643,17.38,9.243z M19.349,12.009c0.033-0.032,0.066-0.066,0.101-0.102 c0.438-0.445,0.556-0.883,0.342-1.338c-0.118-0.25-0.243-0.365-0.378-0.349s-0.358,0.179-0.666,0.493 C18.948,11.146,19.15,11.577,19.349,12.009z"/> </g> </g>
</svg>