<!DOCTYPE svg PUBLIC "-//W3C//DTD SVG 1.1//EN" "http://www.w3.org/Graphics/SVG/1.1/DTD/svg11.dtd">
<!-- Uploaded to: SVG Repo, www.svgrepo.com, Transformed by: SVG Repo Mixer Tools -->
<svg height="64px" width="64px" version="1.1" id="Layer_1" xmlns="http://www.w3.org/2000/svg" xmlns:xlink="http://www.w3.org/1999/xlink" viewBox="0 0 508 508" xml:space="preserve" fill="#000000">
<g id="SVGRepo_bgCarrier" stroke-width="0"/>
<g id="SVGRepo_tracerCarrier" stroke-linecap="round" stroke-linejoin="round" stroke="#CCCCCC" stroke-width="3.048"/>
<g id="SVGRepo_iconCarrier"> <circle style="fill:#2386CA;" cx="254" cy="254" r="254"/> <ellipse style="fill:#2B3B4E;" cx="254" cy="387.6" rx="112.8" ry="28.4"/> <path style="fill:#efbf04;" d="M254,278c-67.2,0-105.6,14-107.2,21.6V388l0,0c2.4,7.6,40.4,21.6,107.2,21.6 c67.2,0,105.6-14,107.2-21.6v-88C359.6,292,321.2,278,254,278z"/> <ellipse style="fill:#2B3B4E;" cx="254" cy="299.6" rx="112.8" ry="28.4"/> <path style="fill:#efbf04;" d="M254,190c-67.2,0-105.6,14-107.2,21.6V300l0,0c2.4,7.6,40.4,21.6,107.2,21.6 c67.2,0,105.6-14,107.2-21.6v-88C359.6,204,321.2,190,254,190z"/> <ellipse style="fill:#2B3B4E;" cx="254" cy="211.2" rx="112.8" ry="28.4"/> <path style="fill:#efbf04;" d="M254,101.6c-67.2,0-105.6,14-107.2,21.6v88.4l0,0c2.4,7.6,40.4,21.6,107.2,21.6 c67.2,0,105.6-14,107.2-21.6v-88C359.6,115.6,321.2,101.6,254,101.6z"/> <ellipse style="fill:#2B3B4E;" cx="254" cy="122.4" rx="112.8" ry="28.4"/> <path style="fill:#efbf04;" d="M254,142.8c-69.6,0-103.2-14.8-104.8-20.4c1.6-5.6,35.2-20,104.8-20s103.2,14.8,104.8,20.4 C357.2,128.4,323.6,142.8,254,142.8z"/> <ellipse style="fill:#ACB3BA;" cx="192" cy="120.8" rx="18" ry="6.4"/> <g> <path style="fill:#FFFFFF;" d="M164.4,208L164.4,208c-1.2,0-2-0.8-2-2v-50c0-1.2,0.8-2,2-2l0,0c1.2,0,2,0.8,2,2v50 C166.8,207.2,165.6,208,164.4,208z"/> <path style="fill:#FFFFFF;" d="M164.4,297.6L164.4,297.6c-1.2,0-2-0.8-2-2v-50c0-1.2,0.8-2,2-2l0,0c1.2,0,2,0.8,2,2v50 C166.8,296.4,165.6,297.6,164.4,297.6z"/> <path style="fill:#FFFFFF;" d="M164.4,386.8L164.4,386.8c-1.2,0-2-0.8-2-2v-50c0-1.2,0.8-2,2-2l0,0c1.2,0,2,0.8,2,2v50 C166.8,386,165.6,386.8,164.4,386.8z"/> </g> </g>
</svg>