<!DOCTYPE svg PUBLIC "-//W3C//DTD SVG 1.1//EN" "http://www.w3.org/Graphics/SVG/1.1/DTD/svg11.dtd">
<!-- Uploaded to: SVG Repo, www.svgrepo.com, Transformed by: SVG Repo Mixer Tools -->
<svg width="64px" height="64px" viewBox="-3.92 -3.92 21.84 21.84" role="img" focusable="false" aria-hidden="true" xmlns="http://www.w3.org/2000/svg" fill="#000000">
<g id="SVGRepo_bgCarrier" stroke-width="0">
<rect x="-3.92" y="-3.92" width="21.84" height="21.84" rx="10.92" fill="#7ed0ec" strokewidth="0"/>
</g>
<g id="SVGRepo_tracerCarrier" stroke-linecap="round" stroke-linejoin="round"/>
<g id="SVGRepo_iconCarrier"> <path fill="#438446" d="M11.8 5.5H13v6.9h-1.2zM10 7.6h1.2v4.8H10zM8.2 6.1h1.2v6.3H8.2zM6.4 7.9h1.2v4.5H6.4zm-1.8.9h1.2v3.6H4.6zm-1.8-.6H4v4.2H2.8zM1 9.4h1.2v3H1z"/> <g fill="#438446"> <path d="M8.8 4.24l1.2 1.2 2.67-2.67-.84-.84L10 3.76l-1.2-1.2-3 3-1.5-1.5-3.12 3.12.84.84L4.3 5.74l1.5 1.5z"/> <path d="M13 1.6h-2.7L13 4.3z"/> </g> </g>
</svg>